<svg width="600" height="720" viewBox="0 0 600 720" fill="none" xmlns="http://www.w3.org/2000/svg">
<mask id="mask0_8_18" style="mask-type:alpha" maskUnits="userSpaceOnUse" x="0" y="0" width="600" height="720">
<path d="M0 12C0 5.37257 5.37258 0 12 0H588C594.627 0 600 5.37258 600 12V708C600 714.627 594.627 720 588 720H12C5.37257 720 0 714.627 0 708V12Z" fill="#FEFEFE"/>
</mask>
<g mask="url(#mask0_8_18)">
<path d="M0 12C0 5.37257 5.37258 0 12 0H588C594.627 0 600 5.37258 600 12V708C600 714.627 594.627 720 588 720H12C5.37257 720 0 714.627 0 708V12Z" fill="#FEFEFE"/>
<path d="M1500 -1041.6C1500 -378.858 962.742 158.4 300 158.4C-362.742 158.4 -900 -378.858 -900 -1041.6C-900 -1704.34 -362.742 -2241.6 300 -2241.6C962.742 -2241.6 1500 -1704.34 1500 -1041.6Z" fill="#B8ACD7"/>
<path d="M1470 -1041.6C1470 -395.427 946.173 128.4 300 128.4C-346.173 128.4 -870 -395.427 -870 -1041.6C-870 -1687.77 -346.173 -2211.6 300 -2211.6C946.173 -2211.6 1470 -1687.77 1470 -1041.6Z" fill="#715AB0"/>
<circle cx="300" cy="108" r="54" fill="#FEFEFE"/>
<path d="M322.548 78.1458C322.53 78.1104 322.497 78.0887 322.477 78.0553C322.341 77.7976 322.172 77.5772 321.969 77.3903L321.967 77.3883C321.912 77.3509 321.843 77.3116 321.775 77.2762L321.761 77.2703C321.719 77.2408 321.704 77.1857 321.658 77.1581C321.599 77.1207 321.527 77.1326 321.464 77.0991C321.206 76.9594 320.903 76.863 320.582 76.8315H320.572C320.504 76.8178 320.417 76.806 320.33 76.8H320.323C319.907 76.802 319.518 76.9083 319.178 77.0952L319.189 77.0893C319.17 77.0991 319.146 77.0932 319.126 77.105L264.039 108.584C263.294 109.015 262.8 109.81 262.8 110.719C262.8 111.703 263.378 112.553 264.215 112.946L264.23 112.952L282.475 121.373V134.329C282.475 135.259 282.992 136.068 283.753 136.485L283.767 136.491C284.106 136.678 284.507 136.786 284.936 136.786C285.438 136.786 285.904 136.635 286.293 136.377L286.284 136.383L298.141 128.601L315.384 136.56C315.685 136.701 316.039 136.786 316.413 136.786C317.71 136.786 318.77 135.785 318.865 134.512V134.504L322.8 79.4128C322.804 79.3676 322.774 79.3302 322.774 79.285C322.776 79.2535 322.776 79.2161 322.776 79.1787C322.776 78.8029 322.691 78.4468 322.538 78.1301L322.544 78.1438L322.548 78.1458ZM308.86 88.6363L284.245 116.771L270.627 110.485L308.86 88.6363ZM287.395 129.774V123.641L292.88 126.174L287.395 129.774ZM314.218 130.602L299.141 123.643C299.09 123.616 299.066 123.561 299.013 123.535L288.949 118.866L317.375 86.3757L314.218 130.602Z" fill="#715AB0"/>
</g>
</svg>
